<svg xmlns="http://www.w3.org/2000/svg" width="900" height="650" viewBox="0 0 900 650">
<rect x="0" y="0" width="900" height="650" fill="transparent"/>
<text id="label-incompressible" x="130" y="38" font-size="13" fill="#e8e8ee" text-anchor="middle" font-weight="600">Incompressible</text>
<text id="label-viscosity" x="450" y="38" font-size="13" fill="#e8e8ee" text-anchor="middle" font-weight="600">Viscous vs Nonviscous</text>
<text id="label-rotation" x="760" y="38" font-size="13" fill="#e8e8ee" text-anchor="middle" font-weight="600">Rotational vs Irrotational</text>
<line id="divider-1" x1="290" y1="50" x2="290" y2="620" stroke="rgba(232,232,238,0.2)" stroke-width="1" stroke-dasharray=""/>
<line id="divider-2" x1="610" y1="50" x2="610" y2="620" stroke="rgba(232,232,238,0.2)" stroke-width="1" stroke-dasharray=""/>
<rect id="density-dots-uniform" x="45" y="70" width="170" height="110" rx="4" fill="none" stroke="#7fd4ff" stroke-width="2"/>
<circle id="dot-r1c1" cx="78" cy="100" r="4" fill="#7fd4ff" stroke="none" stroke-width="0" stroke-dasharray=""/>
<circle id="dot-r1c2" cx="110" cy="100" r="4" fill="#7fd4ff" stroke="none" stroke-width="0" stroke-dasharray=""/>
<circle id="dot-r1c3" cx="142" cy="100" r="4" fill="#7fd4ff" stroke="none" stroke-width="0" stroke-dasharray=""/>
<circle id="dot-r1c4" cx="174" cy="100" r="4" fill="#7fd4ff" stroke="none" stroke-width="0" stroke-dasharray=""/>
<circle id="dot-r2c1" cx="78" cy="125" r="4" fill="#7fd4ff" stroke="none" stroke-width="0" stroke-dasharray=""/>
<circle id="dot-r2c2" cx="110" cy="125" r="4" fill="#7fd4ff" stroke="none" stroke-width="0" stroke-dasharray=""/>
<circle id="dot-r2c3" cx="142" cy="125" r="4" fill="#7fd4ff" stroke="none" stroke-width="0" stroke-dasharray=""/>
<circle id="dot-r2c4" cx="174" cy="125" r="4" fill="#7fd4ff" stroke="none" stroke-width="0" stroke-dasharray=""/>
<circle id="dot-r3c1" cx="78" cy="150" r="4" fill="#7fd4ff" stroke="none" stroke-width="0" stroke-dasharray=""/>
<circle id="dot-r3c2" cx="110" cy="150" r="4" fill="#7fd4ff" stroke="none" stroke-width="0" stroke-dasharray=""/>
<circle id="dot-r3c3" cx="142" cy="150" r="4" fill="#7fd4ff" stroke="none" stroke-width="0" stroke-dasharray=""/>
<circle id="dot-r3c4" cx="174" cy="150" r="4" fill="#7fd4ff" stroke="none" stroke-width="0" stroke-dasharray=""/>
<text id="density-label" x="130" y="202" font-size="10" fill="rgba(232,232,238,0.65)" text-anchor="middle" font-weight="normal">same density everywhere</text>
<rect id="viscous-layers" x="320" y="70" width="260" height="130" rx="3" fill="none" stroke="rgba(232,232,238,0.3)" stroke-width="1"/>
<defs><marker id="arrowhead_viscous-top-arrow" markerWidth="10" markerHeight="10" refX="9" refY="3" orient="auto" markerUnits="strokeWidth"><path d="M0,0 L0,6 L9,3 z" fill="#9effc9"/></marker></defs><line id="viscous-top-arrow" x1="330" y1="100" x2="555" y2="100" stroke="#9effc9" stroke-width="2.5" marker-end="url(#arrowhead_viscous-top-arrow)"/>
<defs><marker id="arrowhead_viscous-bot-arrow" markerWidth="10" markerHeight="10" refX="9" refY="3" orient="auto" markerUnits="strokeWidth"><path d="M0,0 L0,6 L9,3 z" fill="#9effc9"/></marker></defs><line id="viscous-bot-arrow" x1="330" y1="170" x2="490" y2="170" stroke="#9effc9" stroke-width="2.5" marker-end="url(#arrowhead_viscous-bot-arrow)"/>
<path id="viscous-friction-line" d="M 330 135 L 348 128 L 366 142 L 384 128 L 402 142 L 420 128 L 438 142 L 456 128 L 474 142 L 492 128 L 510 142 L 528 128 L 546 135" stroke="#ff7a8a" stroke-width="2" fill="none" stroke-dasharray=""/>
<text id="viscous-label" x="450" y="218" font-size="10" fill="#ff7a8a" text-anchor="middle" font-weight="normal">internal friction — energy lost</text>
<rect id="nonviscous-layers" x="320" y="260" width="260" height="130" rx="3" fill="none" stroke="rgba(232,232,238,0.3)" stroke-width="1"/>
<defs><marker id="arrowhead_nonviscous-top-arrow" markerWidth="10" markerHeight="10" refX="9" refY="3" orient="auto" markerUnits="strokeWidth"><path d="M0,0 L0,6 L9,3 z" fill="#9effc9"/></marker></defs><line id="nonviscous-top-arrow" x1="330" y1="290" x2="555" y2="290" stroke="#9effc9" stroke-width="2.5" marker-end="url(#arrowhead_nonviscous-top-arrow)"/>
<defs><marker id="arrowhead_nonviscous-bot-arrow" markerWidth="10" markerHeight="10" refX="9" refY="3" orient="auto" markerUnits="strokeWidth"><path d="M0,0 L0,6 L9,3 z" fill="#9effc9"/></marker></defs><line id="nonviscous-bot-arrow" x1="330" y1="360" x2="490" y2="360" stroke="#9effc9" stroke-width="2.5" marker-end="url(#arrowhead_nonviscous-bot-arrow)"/>
<line id="nonviscous-smooth-line" x1="330" y1="325" x2="546" y2="325" stroke="#7fd4ff" stroke-width="2" stroke-dasharray="6 4"/>
<text id="nonviscous-label" x="450" y="408" font-size="10" fill="#7fd4ff" text-anchor="middle" font-weight="normal">no friction — energy conserved</text>
<circle id="rotational-particle" cx="680" cy="130" r="22" fill="none" stroke="#ff7a8a" stroke-width="2.5" stroke-dasharray=""/>
<path id="rotational-spin-arrow" d="M 711.1769145362398 112.0 A 36.0 36.0 0 1 1 662.0 98.82308546376022" stroke="#ff7a8a" stroke-width="2" fill="none"/>
<path id="rotational-arrowhead" d="M 710 108 L 717 96 L 703 100 Z" stroke="#ff7a8a" stroke-width="1.5" fill="#ff7a8a" stroke-dasharray=""/>
<text id="rotational-label" x="680" y="184" font-size="10" fill="#ff7a8a" text-anchor="middle" font-weight="normal">rotational</text>
<circle id="irrotational-particle" cx="820" cy="130" r="22" fill="none" stroke="#9effc9" stroke-width="2.5" stroke-dasharray=""/>
<path id="irrotational-tick" d="M 810 130 L 817 138 L 832 118" stroke="#9effc9" stroke-width="2.5" fill="none" stroke-dasharray=""/>
<text id="irrotational-label" x="820" y="184" font-size="10" fill="#9effc9" text-anchor="middle" font-weight="normal">irrotational — no self-spin</text>
<circle id="bucket-vortex" cx="680" cy="370" r="55" fill="none" stroke="#7fd4ff" stroke-width="2" stroke-dasharray=""/>
<circle id="bucket-inner" cx="680" cy="370" r="28" fill="none" stroke="rgba(127,212,255,0.5)" stroke-width="1.5" stroke-dasharray="4 3"/>
<path id="vortex-swirl-outer" d="M 721.3619256265127 377.2932234620111 A 42.0 42.0 0 1 1 706.9970796068346 337.8261333890029" stroke="#7fd4ff" stroke-width="2" fill="none"/>
<path id="vortex-arrowhead" d="M 680 328 L 673 316 L 687 318 Z" stroke="#7fd4ff" stroke-width="1.5" fill="#7fd4ff" stroke-dasharray=""/>
<text id="vortex-label" x="680" y="444" font-size="10" fill="#7fd4ff" text-anchor="middle" font-weight="normal">vortex / rotational flow</text>
<path id="river-streamlines" d="M 640 490 Q 680 480 820 488 M 640 508 Q 680 500 820 506 M 640 526 Q 680 518 820 524" stroke="#9effc9" stroke-width="2" fill="none" stroke-dasharray=""/>
<defs><marker id="arrowhead_stream-arrow-1" markerWidth="10" markerHeight="10" refX="9" refY="3" orient="auto" markerUnits="strokeWidth"><path d="M0,0 L0,6 L9,3 z" fill="#9effc9"/></marker></defs><line id="stream-arrow-1" x1="740" y1="488" x2="820" y2="488" stroke="#9effc9" stroke-width="2" marker-end="url(#arrowhead_stream-arrow-1)"/>
<defs><marker id="arrowhead_stream-arrow-2" markerWidth="10" markerHeight="10" refX="9" refY="3" orient="auto" markerUnits="strokeWidth"><path d="M0,0 L0,6 L9,3 z" fill="#9effc9"/></marker></defs><line id="stream-arrow-2" x1="740" y1="506" x2="820" y2="506" stroke="#9effc9" stroke-width="2" marker-end="url(#arrowhead_stream-arrow-2)"/>
<defs><marker id="arrowhead_stream-arrow-3" markerWidth="10" markerHeight="10" refX="9" refY="3" orient="auto" markerUnits="strokeWidth"><path d="M0,0 L0,6 L9,3 z" fill="#9effc9"/></marker></defs><line id="stream-arrow-3" x1="740" y1="524" x2="820" y2="524" stroke="#9effc9" stroke-width="2" marker-end="url(#arrowhead_stream-arrow-3)"/>
<text id="river-label" x="730" y="548" font-size="10" fill="#9effc9" text-anchor="middle" font-weight="normal">irrotational flow</text>
<text id="rho-label" x="130" y="235" font-size="11" fill="#7fd4ff" text-anchor="middle" font-weight="normal">ρ = const</text>
</svg>